<svg width="21" height="21" viewBox="0 0 21 21" fill="none" xmlns="http://www.w3.org/2000/svg">
<g clip-path="url(#clip0_63_59)">
<path d="M20.5 16.3333C20.5 16.1041 20.3125 15.9166 20.0833 15.9166H0.916667C0.6875 15.9166 0.5 16.1041 0.5 16.3333V18C0.5 18.2291 0.6875 18.4166 0.916667 18.4166H2.49167C2.29167 18.6375 2.16667 18.9291 2.16667 19.25C2.16667 19.6166 2.32917 19.95 2.58333 20.1791C2.80417 20.3791 3.1 20.5 3.41667 20.5C4.10417 20.5 4.66667 19.9375 4.66667 19.25C4.66667 18.9291 4.54167 18.6375 4.34167 18.4166H16.6583C16.4583 18.6375 16.3333 18.9291 16.3333 19.25C16.3333 19.9375 16.8958 20.5 17.5833 20.5C17.9 20.5 18.1958 20.3791 18.4167 20.1791C18.6708 19.95 18.8333 19.6166 18.8333 19.25C18.8333 18.9291 18.7083 18.6375 18.5083 18.4166H20.0833C20.3125 18.4166 20.5 18.2291 20.5 18V16.3333ZM4.66667 12.1666H2.58333V15.0833H5.91667V7.16663H2.58333V9.24996H4.66667C4.89583 9.24996 5.08333 9.43746 5.08333 9.66663C5.08333 9.89579 4.89583 10.0833 4.66667 10.0833H2.58333V11.3333H4.66667C4.89583 11.3333 5.08333 11.5208 5.08333 11.75C5.08333 11.9791 4.89583 12.1666 4.66667 12.1666Z" fill="#8A8A8A"/>
<path d="M10.0833 1.75H6.75V4.25H10.0833V1.75Z" fill="#8A8A8A"/>
<path d="M10.0833 5.08337H6.75V5.91671H10.0833V5.08337Z" fill="#8A8A8A"/>
<path d="M14.25 17.1666H10.9167V18H14.25V17.1666Z" fill="#8A8A8A"/>
<path d="M14.25 15.0833V5.91667H10.9167V15.0833H14.25ZM12.2875 6.87083C12.4417 6.71667 12.725 6.71667 12.8792 6.87083C12.9542 6.95 13 7.05833 13 7.16667C13 7.275 12.9542 7.38333 12.8792 7.4625C12.8 7.5375 12.6958 7.58333 12.5833 7.58333C12.475 7.58333 12.3667 7.5375 12.2875 7.4625C12.2125 7.38333 12.1667 7.275 12.1667 7.16667C12.1667 7.05417 12.2125 6.95 12.2875 6.87083ZM12.2875 8.5375C12.4417 8.38333 12.725 8.38333 12.8792 8.5375C12.9542 8.61667 13 8.725 13 8.83333C13 8.94167 12.9542 9.05 12.8792 9.12917C12.8583 9.14583 12.8375 9.1625 12.8167 9.17917C12.7917 9.19583 12.7667 9.20833 12.7417 9.21667C12.7167 9.22917 12.6917 9.2375 12.6667 9.24167C12.6375 9.24583 12.6125 9.25 12.5833 9.25C12.475 9.25 12.3667 9.20417 12.2875 9.12917C12.2125 9.05 12.1667 8.94583 12.1667 8.83333C12.1667 8.725 12.2125 8.61667 12.2875 8.5375ZM12.2875 10.2042C12.3875 10.1083 12.5292 10.0667 12.6667 10.0917C12.6917 10.0958 12.7167 10.1042 12.7417 10.1167C12.7667 10.125 12.7917 10.1375 12.8167 10.1542C12.8375 10.1667 12.8583 10.1875 12.8792 10.2042C12.9542 10.2833 13 10.3917 13 10.5C13 10.6083 12.9542 10.7167 12.8792 10.7958C12.8 10.8708 12.6958 10.9167 12.5833 10.9167C12.475 10.9167 12.3667 10.8708 12.2875 10.7958C12.25 10.7542 12.2208 10.7125 12.2 10.6583C12.1792 10.6083 12.1667 10.5542 12.1667 10.5C12.1667 10.3917 12.2125 10.2833 12.2875 10.2042ZM18.4167 18.4167V20.1792C18.1958 20.3792 17.9 20.5 17.5833 20.5C16.8958 20.5 16.3333 19.9375 16.3333 19.25C16.3333 18.9292 16.4583 18.6375 16.6583 18.4167H18.4167ZM18.4167 15.0833V14.25V5.5H16.3333C16.1042 5.5 15.9167 5.3125 15.9167 5.08333C15.9167 4.85417 16.1042 4.66667 16.3333 4.66667H18.4167V3.41667H16.3333C16.1042 3.41667 15.9167 3.22917 15.9167 3C15.9167 2.77083 16.1042 2.58333 16.3333 2.58333H18.4167V0.5H15.0833V15.0833H18.4167ZM6.75 6.75V15.0833H7.58333H8H8.83333H9.25H10.0833V6.75H6.75ZM8.03333 13.2583C8.05417 13.2042 8.08333 13.1625 8.12083 13.1208C8.1625 13.0833 8.20417 13.0542 8.25833 13.0333C8.33333 13 8.41667 12.9917 8.49583 13.0083C8.525 13.0125 8.55 13.0208 8.575 13.0333C8.6 13.0417 8.625 13.0542 8.64583 13.0708C8.67083 13.0833 8.69167 13.1042 8.7125 13.1208C8.7875 13.2 8.83333 13.3083 8.83333 13.4167C8.83333 13.4417 8.82917 13.4708 8.825 13.5C8.82083 13.525 8.8125 13.55 8.8 13.575C8.79167 13.6 8.77917 13.625 8.7625 13.65C8.74583 13.6708 8.72917 13.6917 8.7125 13.7125C8.69167 13.7292 8.67083 13.7458 8.64583 13.7625C8.625 13.7792 8.6 13.7917 8.575 13.8C8.55 13.8125 8.525 13.8208 8.49583 13.825C8.47083 13.8292 8.44167 13.8333 8.41667 13.8333C8.30833 13.8333 8.2 13.7875 8.12083 13.7125C8.04583 13.6333 8 13.5292 8 13.4167C8 13.3625 8.0125 13.3083 8.03333 13.2583Z" fill="#8A8A8A"/>
</g>
<defs>
<clipPath id="clip0_63_59">
<rect width="20" height="20" fill="white" transform="translate(0.5 0.5)"/>
</clipPath>
</defs>
</svg>
