<svg width="21" height="21" viewBox="0 0 21 21" fill="none" xmlns="http://www.w3.org/2000/svg">
<g clip-path="url(#clip0_75_2858)">
<path d="M3.36656 12.1898H0.137812C0.065625 12.1898 0 12.2489 0 12.3276V18.8311C0 18.9065 0.065625 18.9689 0.137812 18.9689H3.36328C3.44203 18.9689 3.50109 18.9033 3.50109 18.8311V12.3276C3.50191 12.3096 3.49901 12.2916 3.49258 12.2747C3.48615 12.2579 3.47632 12.2425 3.46371 12.2296C3.4511 12.2166 3.43597 12.2065 3.41926 12.1996C3.40255 12.1928 3.38461 12.1895 3.36656 12.1898ZM2.11641 18.3586C1.80469 18.3586 1.54875 18.1026 1.54875 17.7909C1.54875 17.4759 1.80469 17.22 2.11641 17.22C2.43141 17.22 2.68734 17.4759 2.68734 17.7909C2.68734 18.1026 2.43141 18.3586 2.11641 18.3586ZM20.1305 14.8444L14.9625 16.5473C14.7623 16.7311 14.4998 16.8361 14.2308 16.8361H8.84953C8.80471 16.8361 8.76173 16.8183 8.73004 16.7866C8.69835 16.7549 8.68055 16.7119 8.68055 16.6671C8.68055 16.6223 8.69835 16.5793 8.73004 16.5476C8.76173 16.5159 8.80471 16.4981 8.84953 16.4981H14.2308C14.4178 16.4981 14.5983 16.4259 14.7361 16.3012C14.7459 16.2881 14.7591 16.2783 14.7722 16.2651C14.9002 16.1306 14.9723 15.9469 14.9723 15.7533C14.9723 15.3431 14.6409 15.0084 14.2308 15.0084H10.5164C10.418 15.0084 10.3327 14.9723 10.2638 14.8969C8.6625 13.079 5.72906 12.8034 4.12125 12.8034C4.02281 12.8034 3.92766 12.8067 3.83906 12.8067V18.1026L8.77734 19.7859C9.94547 20.183 11.1956 20.288 12.4261 20.0681C13.2088 19.9317 13.9644 19.6703 14.6639 19.2937L20.6555 16.0387C20.8687 15.9239 20.9967 15.704 20.9967 15.4645C20.9967 15.3661 20.977 15.2742 20.9311 15.1856C20.8636 15.0397 20.7444 14.9239 20.5965 14.8609C20.4485 14.7979 20.2825 14.792 20.1305 14.8444ZM8.72484 3.69139L8.70187 5.28936C8.70187 5.30577 8.71172 5.31561 8.72484 5.31561H20.9803C20.9902 5.31561 21 5.30577 21 5.28936V3.71108L8.72484 3.69139ZM13.9388 12.9084V5.64702H9.30562V12.7378C9.30562 12.833 9.38109 12.9117 9.47625 12.9117H13.9388V12.9084ZM20.3995 12.7378V5.64702H15.7631V12.9084H20.2289C20.3208 12.9084 20.3995 12.8297 20.3995 12.7378ZM14.2734 5.64702H15.4317V12.9084H14.2734V5.64702ZM12.9511 3.30092L13.7222 3.55686H15.8452L16.6195 3.30092C16.826 3.23333 17.0116 3.11353 17.1582 2.95313C17.3048 2.79274 17.4075 2.5972 17.4563 2.38545C17.5613 1.95561 17.4333 1.50936 17.1183 1.19108C16.8787 0.948267 16.5605 0.817017 16.2225 0.817017C16.1208 0.817017 16.0223 0.830142 15.9239 0.85311C15.7122 0.901968 15.5167 1.00466 15.3563 1.15125C15.1959 1.29784 15.0761 1.48335 15.0084 1.68983L14.7886 2.35592L14.5655 1.68983C14.4178 1.26655 14.0766 0.951548 13.6434 0.85311C13.4321 0.801492 13.211 0.805492 13.0017 0.864721C12.7924 0.92395 12.602 1.03639 12.4491 1.19108C12.1341 1.50608 12.0061 1.95233 12.1078 2.38545C12.1586 2.59733 12.2627 2.7927 12.4103 2.95294C12.5579 3.11319 12.7441 3.23298 12.9511 3.30092ZM15.7041 1.9228C15.7631 1.74561 15.9075 1.61436 16.088 1.5717C16.1306 1.56186 16.1733 1.5553 16.2127 1.5553C16.3538 1.5553 16.4883 1.61108 16.5867 1.7128C16.718 1.84077 16.7738 2.03108 16.7311 2.21155C16.6852 2.3953 16.5539 2.53967 16.3767 2.59874L15.3595 2.9367L15.7041 1.9228ZM12.9708 1.71608C13.0725 1.61436 13.207 1.55858 13.3481 1.55858C13.3908 1.55858 13.4334 1.56514 13.4761 1.57499C13.6566 1.61764 13.8009 1.74889 13.86 1.92608L14.198 2.94327L13.1808 2.6053C13.0036 2.54624 12.8723 2.40186 12.8264 2.22139C12.787 2.03436 12.8395 1.84733 12.9708 1.71608Z" fill="#8A8A8A"/>
</g>
<defs>
<clipPath id="clip0_75_2858">
<rect width="21" height="21" fill="white"/>
</clipPath>
</defs>
</svg>
